<svg width="293" height="162" viewBox="0 0 293 162" fill="none" xmlns="http://www.w3.org/2000/svg">
<path d="M57.4677 83.5715V70.9715H61.5357C62.5197 70.9715 63.3237 71.1335 63.9477 71.4575C64.5717 71.7815 65.0337 72.2255 65.3337 72.7895C65.6337 73.3535 65.7837 73.9775 65.7837 74.6615C65.7837 75.4535 65.5677 76.1675 65.1357 76.8035C64.7157 77.4395 64.0557 77.8895 63.1557 78.1535L65.9097 83.5715H64.1277L61.5717 78.3695H61.4637H58.9797V83.5715H57.4677ZM58.9797 77.1815H61.4277C62.3997 77.1815 63.1077 76.9475 63.5517 76.4795C63.9957 76.0115 64.2177 75.4115 64.2177 74.6795C64.2177 73.9355 63.9957 73.3475 63.5517 72.9155C63.1197 72.4715 62.4057 72.2495 61.4097 72.2495H58.9797V77.1815ZM68.5697 83.6615C68.2697 83.6615 68.0177 83.5655 67.8137 83.3735C67.6217 83.1695 67.5257 82.9235 67.5257 82.6355C67.5257 82.3475 67.6217 82.1075 67.8137 81.9155C68.0177 81.7115 68.2697 81.6095 68.5697 81.6095C68.8577 81.6095 69.0977 81.7115 69.2897 81.9155C69.4937 82.1075 69.5957 82.3475 69.5957 82.6355C69.5957 82.9235 69.4937 83.1695 69.2897 83.3735C69.0977 83.5655 68.8577 83.6615 68.5697 83.6615ZM76.417 83.5715V70.9715H84.211V72.2135H77.929V76.6055H83.671V77.8295H77.929V82.3295H84.211V83.5715H76.417ZM86.4871 83.5715V74.6435H87.8551L87.9451 76.2455C88.2331 75.6815 88.6471 75.2375 89.1871 74.9135C89.7271 74.5895 90.3391 74.4275 91.0231 74.4275C92.0791 74.4275 92.9191 74.7515 93.5431 75.3995C94.1791 76.0355 94.4971 77.0195 94.4971 78.3515V83.5715H92.9851V78.5135C92.9851 76.6535 92.2171 75.7235 90.6811 75.7235C89.9131 75.7235 89.2711 76.0055 88.7551 76.5695C88.2511 77.1215 87.9991 77.9135 87.9991 78.9455V83.5715H86.4871ZM100.838 83.7875C99.9499 83.7875 99.1699 83.5835 98.4979 83.1755C97.8379 82.7675 97.3219 82.2095 96.9499 81.5015C96.5899 80.7935 96.4099 79.9895 96.4099 79.0895C96.4099 78.1895 96.5959 77.3915 96.9679 76.6955C97.3399 75.9875 97.8559 75.4355 98.5159 75.0395C99.1759 74.6315 99.9559 74.4275 100.856 74.4275C101.588 74.4275 102.236 74.5775 102.8 74.8775C103.364 75.1775 103.802 75.5975 104.114 76.1375V70.6115H105.626V83.5715H104.258L104.114 82.0955C103.826 82.5275 103.412 82.9175 102.872 83.2655C102.332 83.6135 101.654 83.7875 100.838 83.7875ZM101 82.4735C101.6 82.4735 102.128 82.3355 102.584 82.0595C103.052 81.7715 103.412 81.3755 103.664 80.8715C103.928 80.3675 104.06 79.7795 104.06 79.1075C104.06 78.4355 103.928 77.8475 103.664 77.3435C103.412 76.8395 103.052 76.4495 102.584 76.1735C102.128 75.8855 101.6 75.7415 101 75.7415C100.412 75.7415 99.8839 75.8855 99.4159 76.1735C98.9599 76.4495 98.5999 76.8395 98.3359 77.3435C98.0839 77.8475 97.9579 78.4355 97.9579 79.1075C97.9579 79.7795 98.0839 80.3675 98.3359 80.8715C98.5999 81.3755 98.9599 81.7715 99.4159 82.0595C99.8839 82.3355 100.412 82.4735 101 82.4735ZM112.105 83.7875C111.253 83.7875 110.497 83.5955 109.837 83.2115C109.177 82.8155 108.655 82.2695 108.271 81.5735C107.899 80.8775 107.713 80.0555 107.713 79.1075C107.713 78.1715 107.899 77.3555 108.271 76.6595C108.643 75.9515 109.159 75.4055 109.819 75.0215C110.491 74.6255 111.265 74.4275 112.141 74.4275C113.005 74.4275 113.749 74.6255 114.373 75.0215C115.009 75.4055 115.495 75.9155 115.831 76.5515C116.167 77.1875 116.335 77.8715 116.335 78.6035C116.335 78.7355 116.329 78.8675 116.317 78.9995C116.317 79.1315 116.317 79.2815 116.317 79.4495H109.207C109.243 80.1335 109.399 80.7035 109.675 81.1595C109.963 81.6035 110.317 81.9395 110.737 82.1675C111.169 82.3955 111.625 82.5095 112.105 82.5095C112.729 82.5095 113.251 82.3655 113.671 82.0775C114.091 81.7895 114.397 81.3995 114.589 80.9075H116.083C115.843 81.7355 115.381 82.4255 114.697 82.9775C114.025 83.5175 113.161 83.7875 112.105 83.7875ZM112.105 75.7055C111.385 75.7055 110.743 75.9275 110.179 76.3715C109.627 76.8035 109.309 77.4395 109.225 78.2795H114.841C114.805 77.4755 114.529 76.8455 114.013 76.3895C113.497 75.9335 112.861 75.7055 112.105 75.7055ZM118.339 83.5715V74.6435H119.707L119.833 76.3535C120.109 75.7655 120.529 75.2975 121.093 74.9495C121.657 74.6015 122.353 74.4275 123.181 74.4275V76.0115H122.767C122.239 76.0115 121.753 76.1075 121.309 76.2995C120.865 76.4795 120.511 76.7915 120.247 77.2355C119.983 77.6795 119.851 78.2915 119.851 79.0715V83.5715H118.339ZM128.558 83.7875C127.706 83.7875 126.95 83.5955 126.29 83.2115C125.63 82.8155 125.108 82.2695 124.724 81.5735C124.352 80.8775 124.166 80.0555 124.166 79.1075C124.166 78.1715 124.352 77.3555 124.724 76.6595C125.096 75.9515 125.612 75.4055 126.272 75.0215C126.944 74.6255 127.718 74.4275 128.594 74.4275C129.458 74.4275 130.202 74.6255 130.826 75.0215C131.462 75.4055 131.948 75.9155 132.284 76.5515C132.62 77.1875 132.788 77.8715 132.788 78.6035C132.788 78.7355 132.782 78.8675 132.77 78.9995C132.77 79.1315 132.77 79.2815 132.77 79.4495H125.66C125.696 80.1335 125.852 80.7035 126.128 81.1595C126.416 81.6035 126.77 81.9395 127.19 82.1675C127.622 82.3955 128.078 82.5095 128.558 82.5095C129.182 82.5095 129.704 82.3655 130.124 82.0775C130.544 81.7895 130.85 81.3995 131.042 80.9075H132.536C132.296 81.7355 131.834 82.4255 131.15 82.9775C130.478 83.5175 129.614 83.7875 128.558 83.7875ZM128.558 75.7055C127.838 75.7055 127.196 75.9275 126.632 76.3715C126.08 76.8035 125.762 77.4395 125.678 78.2795H131.294C131.258 77.4755 130.982 76.8455 130.466 76.3895C129.95 75.9335 129.314 75.7055 128.558 75.7055ZM138.896 83.7875C138.044 83.7875 137.276 83.5955 136.592 83.2115C135.92 82.8155 135.386 82.2695 134.99 81.5735C134.606 80.8655 134.414 80.0435 134.414 79.1075C134.414 78.1715 134.606 77.3555 134.99 76.6595C135.386 75.9515 135.92 75.4055 136.592 75.0215C137.276 74.6255 138.044 74.4275 138.896 74.4275C139.952 74.4275 140.84 74.7035 141.56 75.2555C142.292 75.8075 142.754 76.5455 142.946 77.4695H141.398C141.278 76.9175 140.984 76.4915 140.516 76.1915C140.048 75.8795 139.502 75.7235 138.878 75.7235C138.374 75.7235 137.9 75.8495 137.456 76.1015C137.012 76.3535 136.652 76.7315 136.376 77.2355C136.1 77.7395 135.962 78.3635 135.962 79.1075C135.962 79.8515 136.1 80.4755 136.376 80.9795C136.652 81.4835 137.012 81.8675 137.456 82.1315C137.9 82.3835 138.374 82.5095 138.878 82.5095C139.502 82.5095 140.048 82.3595 140.516 82.0595C140.984 81.7475 141.278 81.3095 141.398 80.7455H142.946C142.766 81.6455 142.31 82.3775 141.578 82.9415C140.846 83.5055 139.952 83.7875 138.896 83.7875ZM137.6 88.2515V87.2975H139.256C140.072 87.2975 140.48 87.0095 140.48 86.4335C140.48 85.8935 140.072 85.6235 139.256 85.6235H138.374V83.4635H139.382V84.7235C140.066 84.7115 140.624 84.8495 141.056 85.1375C141.488 85.4255 141.704 85.8635 141.704 86.4515C141.704 87.0155 141.5 87.4535 141.092 87.7655C140.684 88.0895 140.168 88.2515 139.544 88.2515H137.6ZM149.125 83.7875C148.285 83.7875 147.529 83.5955 146.857 83.2115C146.185 82.8275 145.651 82.2875 145.255 81.5915C144.871 80.8835 144.679 80.0555 144.679 79.1075C144.679 78.1595 144.877 77.3375 145.273 76.6415C145.669 75.9335 146.203 75.3875 146.875 75.0035C147.559 74.6195 148.321 74.4275 149.161 74.4275C150.001 74.4275 150.757 74.6195 151.429 75.0035C152.101 75.3875 152.629 75.9335 153.013 76.6415C153.409 77.3375 153.607 78.1595 153.607 79.1075C153.607 80.0555 153.409 80.8835 153.013 81.5915C152.617 82.2875 152.077 82.8275 151.393 83.2115C150.721 83.5955 149.965 83.7875 149.125 83.7875ZM149.125 82.4915C149.641 82.4915 150.121 82.3655 150.565 82.1135C151.009 81.8615 151.369 81.4835 151.645 80.9795C151.921 80.4755 152.059 79.8515 152.059 79.1075C152.059 78.3635 151.921 77.7395 151.645 77.2355C151.381 76.7315 151.027 76.3535 150.583 76.1015C150.139 75.8495 149.665 75.7235 149.161 75.7235C148.645 75.7235 148.165 75.8495 147.721 76.1015C147.277 76.3535 146.917 76.7315 146.641 77.2355C146.365 77.7395 146.227 78.3635 146.227 79.1075C146.227 79.8515 146.365 80.4755 146.641 80.9795C146.917 81.4835 147.271 81.8615 147.703 82.1135C148.147 82.3655 148.621 82.4915 149.125 82.4915ZM164.523 83.7875C163.635 83.7875 162.855 83.5835 162.183 83.1755C161.523 82.7675 161.007 82.2095 160.635 81.5015C160.275 80.7935 160.095 79.9895 160.095 79.0895C160.095 78.1895 160.281 77.3915 160.653 76.6955C161.025 75.9875 161.541 75.4355 162.201 75.0395C162.861 74.6315 163.641 74.4275 164.541 74.4275C165.273 74.4275 165.921 74.5775 166.485 74.8775C167.049 75.1775 167.487 75.5975 167.799 76.1375V70.6115H169.311V83.5715H167.943L167.799 82.0955C167.511 82.5275 167.097 82.9175 166.557 83.2655C166.017 83.6135 165.339 83.7875 164.523 83.7875ZM164.685 82.4735C165.285 82.4735 165.813 82.3355 166.269 82.0595C166.737 81.7715 167.097 81.3755 167.349 80.8715C167.613 80.3675 167.745 79.7795 167.745 79.1075C167.745 78.4355 167.613 77.8475 167.349 77.3435C167.097 76.8395 166.737 76.4495 166.269 76.1735C165.813 75.8855 165.285 75.7415 164.685 75.7415C164.097 75.7415 163.569 75.8855 163.101 76.1735C162.645 76.4495 162.285 76.8395 162.021 77.3435C161.769 77.8475 161.643 78.4355 161.643 79.1075C161.643 79.7795 161.769 80.3675 162.021 80.8715C162.285 81.3755 162.645 81.7715 163.101 82.0595C163.569 82.3355 164.097 82.4735 164.685 82.4735ZM175.844 83.7875C175.004 83.7875 174.248 83.5955 173.576 83.2115C172.904 82.8275 172.37 82.2875 171.974 81.5915C171.59 80.8835 171.398 80.0555 171.398 79.1075C171.398 78.1595 171.596 77.3375 171.992 76.6415C172.388 75.9335 172.922 75.3875 173.594 75.0035C174.278 74.6195 175.04 74.4275 175.88 74.4275C176.72 74.4275 177.476 74.6195 178.148 75.0035C178.82 75.3875 179.348 75.9335 179.732 76.6415C180.128 77.3375 180.326 78.1595 180.326 79.1075C180.326 80.0555 180.128 80.8835 179.732 81.5915C179.336 82.2875 178.796 82.8275 178.112 83.2115C177.44 83.5955 176.684 83.7875 175.844 83.7875ZM175.844 82.4915C176.36 82.4915 176.84 82.3655 177.284 82.1135C177.728 81.8615 178.088 81.4835 178.364 80.9795C178.64 80.4755 178.778 79.8515 178.778 79.1075C178.778 78.3635 178.64 77.7395 178.364 77.2355C178.1 76.7315 177.746 76.3535 177.302 76.1015C176.858 75.8495 176.384 75.7235 175.88 75.7235C175.364 75.7235 174.884 75.8495 174.44 76.1015C173.996 76.3535 173.636 76.7315 173.36 77.2355C173.084 77.7395 172.946 78.3635 172.946 79.1075C172.946 79.8515 173.084 80.4755 173.36 80.9795C173.636 81.4835 173.99 81.8615 174.422 82.1135C174.866 82.3655 175.34 82.4915 175.844 82.4915ZM187.192 83.5715V74.6435H188.56L188.686 76.3535C188.962 75.7655 189.382 75.2975 189.946 74.9495C190.51 74.6015 191.206 74.4275 192.034 74.4275V76.0115H191.62C191.092 76.0115 190.606 76.1075 190.162 76.2995C189.718 76.4795 189.364 76.7915 189.1 77.2355C188.836 77.6795 188.704 78.2915 188.704 79.0715V83.5715H187.192ZM197.411 83.7875C196.559 83.7875 195.803 83.5955 195.143 83.2115C194.483 82.8155 193.961 82.2695 193.577 81.5735C193.205 80.8775 193.019 80.0555 193.019 79.1075C193.019 78.1715 193.205 77.3555 193.577 76.6595C193.949 75.9515 194.465 75.4055 195.125 75.0215C195.797 74.6255 196.571 74.4275 197.447 74.4275C198.311 74.4275 199.055 74.6255 199.679 75.0215C200.315 75.4055 200.801 75.9155 201.137 76.5515C201.473 77.1875 201.641 77.8715 201.641 78.6035C201.641 78.7355 201.635 78.8675 201.623 78.9995C201.623 79.1315 201.623 79.2815 201.623 79.4495H194.513C194.549 80.1335 194.705 80.7035 194.981 81.1595C195.269 81.6035 195.623 81.9395 196.043 82.1675C196.475 82.3955 196.931 82.5095 197.411 82.5095C198.035 82.5095 198.557 82.3655 198.977 82.0775C199.397 81.7895 199.703 81.3995 199.895 80.9075H201.389C201.149 81.7355 200.687 82.4255 200.003 82.9775C199.331 83.5175 198.467 83.7875 197.411 83.7875ZM197.411 75.7055C196.691 75.7055 196.049 75.9275 195.485 76.3715C194.933 76.8035 194.615 77.4395 194.531 78.2795H200.147C200.111 77.4755 199.835 76.8455 199.319 76.3895C198.803 75.9335 198.167 75.7055 197.411 75.7055ZM205.868 83.5715L202.484 74.6435H204.068L206.75 82.1135L209.45 74.6435H210.998L207.614 83.5715H205.868ZM213.598 72.6635C213.298 72.6635 213.046 72.5675 212.842 72.3755C212.65 72.1715 212.554 71.9195 212.554 71.6195C212.554 71.3315 212.65 71.0915 212.842 70.8995C213.046 70.7075 213.298 70.6115 213.598 70.6115C213.886 70.6115 214.132 70.7075 214.336 70.8995C214.54 71.0915 214.642 71.3315 214.642 71.6195C214.642 71.9195 214.54 72.1715 214.336 72.3755C214.132 72.5675 213.886 72.6635 213.598 72.6635ZM212.842 83.5715V74.6435H214.354V83.5715H212.842ZM216.987 83.5715V74.6435H218.355L218.481 76.3535C218.757 75.7655 219.177 75.2975 219.741 74.9495C220.305 74.6015 221.001 74.4275 221.829 74.4275V76.0115H221.415C220.887 76.0115 220.401 76.1075 219.957 76.2995C219.513 76.4795 219.159 76.7915 218.895 77.2355C218.631 77.6795 218.499 78.2915 218.499 79.0715V83.5715H216.987ZM226.496 83.7875C225.752 83.7875 225.134 83.6615 224.642 83.4095C224.15 83.1575 223.784 82.8215 223.544 82.4015C223.304 81.9815 223.184 81.5255 223.184 81.0335C223.184 80.1215 223.532 79.4195 224.228 78.9275C224.924 78.4355 225.872 78.1895 227.072 78.1895H229.484V78.0815C229.484 77.3015 229.28 76.7135 228.872 76.3175C228.464 75.9095 227.918 75.7055 227.234 75.7055C226.646 75.7055 226.136 75.8555 225.704 76.1555C225.284 76.4435 225.02 76.8695 224.912 77.4335H223.364C223.424 76.7855 223.64 76.2395 224.012 75.7955C224.396 75.3515 224.87 75.0155 225.434 74.7875C225.998 74.5475 226.598 74.4275 227.234 74.4275C228.482 74.4275 229.418 74.7635 230.042 75.4355C230.678 76.0955 230.996 76.9775 230.996 78.0815V83.5715H229.646L229.556 81.9695C229.304 82.4735 228.932 82.9055 228.44 83.2655C227.96 83.6135 227.312 83.7875 226.496 83.7875ZM226.73 82.5095C227.306 82.5095 227.798 82.3595 228.206 82.0595C228.626 81.7595 228.944 81.3695 229.16 80.8895C229.376 80.4095 229.484 79.9055 229.484 79.3775V79.3595H227.198C226.31 79.3595 225.68 79.5155 225.308 79.8275C224.948 80.1275 224.768 80.5055 224.768 80.9615C224.768 81.4295 224.936 81.8075 225.272 82.0955C225.62 82.3715 226.106 82.5095 226.73 82.5095ZM233.264 83.5715V74.6435H234.632L234.758 76.3535C235.034 75.7655 235.454 75.2975 236.018 74.9495C236.582 74.6015 237.278 74.4275 238.106 74.4275V76.0115H237.692C237.164 76.0115 236.678 76.1075 236.234 76.2995C235.79 76.4795 235.436 76.7915 235.172 77.2355C234.908 77.6795 234.776 78.2915 234.776 79.0715V83.5715H233.264ZM238.035 85.7135L239.079 81.7355H240.645L239.079 85.7135H238.035ZM251.218 83.7875C250.414 83.7875 249.688 83.6435 249.04 83.3555C248.392 83.0555 247.87 82.6115 247.474 82.0235C247.09 81.4355 246.886 80.7035 246.862 79.8275H248.392C248.404 80.5475 248.656 81.1715 249.148 81.6995C249.64 82.2155 250.33 82.4735 251.218 82.4735C252.106 82.4735 252.772 82.2275 253.216 81.7355C253.672 81.2435 253.9 80.6495 253.9 79.9535C253.9 79.3655 253.756 78.8855 253.468 78.5135C253.192 78.1415 252.814 77.8655 252.334 77.6855C251.866 77.5055 251.35 77.4155 250.786 77.4155H249.85V76.1375H250.786C251.602 76.1375 252.238 75.9515 252.694 75.5795C253.162 75.2075 253.396 74.6855 253.396 74.0135C253.396 73.4495 253.21 72.9875 252.838 72.6275C252.478 72.2555 251.938 72.0695 251.218 72.0695C250.522 72.0695 249.964 72.2795 249.544 72.6995C249.124 73.1075 248.89 73.6235 248.842 74.2475H247.312C247.348 73.5635 247.528 72.9575 247.852 72.4295C248.188 71.9015 248.644 71.4935 249.22 71.2055C249.796 70.9055 250.462 70.7555 251.218 70.7555C252.034 70.7555 252.712 70.8995 253.252 71.1875C253.804 71.4755 254.218 71.8595 254.494 72.3395C254.782 72.8195 254.926 73.3475 254.926 73.9235C254.926 74.5595 254.752 75.1415 254.404 75.6695C254.056 76.1855 253.534 76.5335 252.838 76.7135C253.582 76.8695 254.2 77.2235 254.692 77.7755C255.184 78.3275 255.43 79.0535 255.43 79.9535C255.43 80.6495 255.268 81.2915 254.944 81.8795C254.632 82.4555 254.164 82.9175 253.54 83.2655C252.916 83.6135 252.142 83.7875 251.218 83.7875ZM263.582 83.5715V80.8715H257.192V79.7015L263.312 70.9715H265.076V79.5395H266.948V80.8715H265.076V83.5715H263.582ZM258.866 79.5395H263.654V72.6455L258.866 79.5395ZM273.31 83.7875C272.398 83.7875 271.63 83.6195 271.006 83.2835C270.382 82.9355 269.878 82.4735 269.494 81.8975C269.122 81.3215 268.846 80.6795 268.666 79.9715C268.498 79.2515 268.414 78.5195 268.414 77.7755C268.414 76.3835 268.606 75.1655 268.99 74.1215C269.374 73.0655 269.926 72.2435 270.646 71.6555C271.378 71.0555 272.26 70.7555 273.292 70.7555C274.084 70.7555 274.762 70.9115 275.326 71.2235C275.89 71.5355 276.334 71.9555 276.658 72.4835C276.994 72.9995 277.204 73.5755 277.288 74.2115H275.884C275.752 73.5275 275.458 72.9995 275.002 72.6275C274.546 72.2555 273.97 72.0695 273.274 72.0695C272.326 72.0695 271.528 72.5195 270.88 73.4195C270.244 74.3075 269.902 75.6995 269.854 77.5955C270.142 77.0315 270.598 76.5455 271.222 76.1375C271.858 75.7175 272.62 75.5075 273.508 75.5075C274.228 75.5075 274.9 75.6755 275.524 76.0115C276.16 76.3475 276.676 76.8215 277.072 77.4335C277.468 78.0335 277.666 78.7415 277.666 79.5575C277.666 80.2655 277.492 80.9435 277.144 81.5915C276.796 82.2395 276.292 82.7675 275.632 83.1755C274.984 83.5835 274.21 83.7875 273.31 83.7875ZM273.202 82.4555C273.766 82.4555 274.27 82.3355 274.714 82.0955C275.158 81.8555 275.506 81.5255 275.758 81.1055C276.01 80.6735 276.136 80.1815 276.136 79.6295C276.136 78.7775 275.854 78.0995 275.29 77.5955C274.738 77.0795 274.042 76.8215 273.202 76.8215C272.638 76.8215 272.134 76.9535 271.69 77.2175C271.246 77.4695 270.892 77.8115 270.628 78.2435C270.376 78.6755 270.25 79.1435 270.25 79.6475C270.25 80.1875 270.376 80.6735 270.628 81.1055C270.892 81.5255 271.246 81.8555 271.69 82.0955C272.134 82.3355 272.638 82.4555 273.202 82.4555Z" fill="#767676"/>
<g clip-path="url(#clip0_44_27)">
<path d="M28.7523 77.1427C28.7523 86.1427 16.4298 93.857 16.4298 93.857C16.4298 93.857 4.10742 86.1427 4.10742 77.1427C4.10742 74.0738 5.40567 71.1305 7.71658 68.9605C10.0275 66.7904 13.1617 65.5713 16.4298 65.5713C19.698 65.5713 22.8322 66.7904 25.1431 68.9605C27.454 71.1305 28.7523 74.0738 28.7523 77.1427Z" stroke="#FFF455" stroke-width="2" stroke-linecap="round" stroke-linejoin="round"/>
<path d="M16.4297 80.9999C18.6982 80.9999 20.5372 79.273 20.5372 77.1428C20.5372 75.0125 18.6982 73.2856 16.4297 73.2856C14.1612 73.2856 12.3223 75.0125 12.3223 77.1428C12.3223 79.273 14.1612 80.9999 16.4297 80.9999Z" stroke="#FFF455" stroke-width="2" stroke-linecap="round" stroke-linejoin="round"/>
</g>
<path d="M94.3074 18V7.092L92.2734 7.542V6.498L94.8114 5.4H95.8374V18H94.3074ZM99.739 18V7.092L97.705 7.542V6.498L100.243 5.4H101.269V18H99.739ZM112.85 18.216C112.058 18.216 111.38 18.06 110.816 17.748C110.252 17.436 109.802 17.022 109.466 16.506C109.142 15.978 108.944 15.396 108.872 14.76H110.276C110.396 15.444 110.684 15.972 111.14 16.344C111.596 16.716 112.172 16.902 112.868 16.902C113.828 16.902 114.626 16.458 115.262 15.57C115.898 14.67 116.24 13.272 116.288 11.376C116 11.94 115.538 12.432 114.902 12.852C114.278 13.26 113.522 13.464 112.634 13.464C111.926 13.464 111.254 13.296 110.618 12.96C109.982 12.624 109.466 12.156 109.07 11.556C108.674 10.944 108.476 10.23 108.476 9.414C108.476 8.706 108.65 8.028 108.998 7.38C109.358 6.732 109.862 6.204 110.51 5.796C111.158 5.388 111.932 5.184 112.832 5.184C113.744 5.184 114.512 5.358 115.136 5.706C115.76 6.042 116.258 6.498 116.63 7.074C117.014 7.65 117.29 8.298 117.458 9.018C117.638 9.726 117.728 10.452 117.728 11.196C117.728 12.588 117.536 13.812 117.152 14.868C116.768 15.912 116.21 16.734 115.478 17.334C114.758 17.922 113.882 18.216 112.85 18.216ZM112.94 12.15C113.504 12.15 114.008 12.024 114.452 11.772C114.896 11.508 115.25 11.16 115.514 10.728C115.778 10.296 115.91 9.828 115.91 9.324C115.91 8.784 115.778 8.304 115.514 7.884C115.25 7.452 114.896 7.116 114.452 6.876C114.008 6.636 113.504 6.516 112.94 6.516C112.376 6.516 111.872 6.636 111.428 6.876C110.984 7.116 110.636 7.452 110.384 7.884C110.132 8.304 110.006 8.79 110.006 9.342C110.006 10.194 110.282 10.878 110.834 11.394C111.398 11.898 112.1 12.15 112.94 12.15ZM124.188 18.216C123.396 18.216 122.718 18.06 122.154 17.748C121.59 17.436 121.14 17.022 120.804 16.506C120.48 15.978 120.282 15.396 120.21 14.76H121.614C121.734 15.444 122.022 15.972 122.478 16.344C122.934 16.716 123.51 16.902 124.206 16.902C125.166 16.902 125.964 16.458 126.6 15.57C127.236 14.67 127.578 13.272 127.626 11.376C127.338 11.94 126.876 12.432 126.24 12.852C125.616 13.26 124.86 13.464 123.972 13.464C123.264 13.464 122.592 13.296 121.956 12.96C121.32 12.624 120.804 12.156 120.408 11.556C120.012 10.944 119.814 10.23 119.814 9.414C119.814 8.706 119.988 8.028 120.336 7.38C120.696 6.732 121.2 6.204 121.848 5.796C122.496 5.388 123.27 5.184 124.17 5.184C125.082 5.184 125.85 5.358 126.474 5.706C127.098 6.042 127.596 6.498 127.968 7.074C128.352 7.65 128.628 8.298 128.796 9.018C128.976 9.726 129.066 10.452 129.066 11.196C129.066 12.588 128.874 13.812 128.49 14.868C128.106 15.912 127.548 16.734 126.816 17.334C126.096 17.922 125.22 18.216 124.188 18.216ZM124.278 12.15C124.842 12.15 125.346 12.024 125.79 11.772C126.234 11.508 126.588 11.16 126.852 10.728C127.116 10.296 127.248 9.828 127.248 9.324C127.248 8.784 127.116 8.304 126.852 7.884C126.588 7.452 126.234 7.116 125.79 6.876C125.346 6.636 124.842 6.516 124.278 6.516C123.714 6.516 123.21 6.636 122.766 6.876C122.322 7.116 121.974 7.452 121.722 7.884C121.47 8.304 121.344 8.79 121.344 9.342C121.344 10.194 121.62 10.878 122.172 11.394C122.736 11.898 123.438 12.15 124.278 12.15ZM135.227 18.216C134.399 18.216 133.655 18.066 132.995 17.766C132.335 17.454 131.813 17.028 131.429 16.488C131.057 15.936 130.871 15.3 130.871 14.58C130.871 13.812 131.093 13.122 131.537 12.51C131.993 11.898 132.593 11.49 133.337 11.286C132.653 11.058 132.125 10.692 131.753 10.188C131.381 9.684 131.195 9.132 131.195 8.532C131.195 7.92 131.357 7.362 131.681 6.858C132.005 6.342 132.467 5.934 133.067 5.634C133.667 5.334 134.387 5.184 135.227 5.184C136.067 5.184 136.787 5.334 137.387 5.634C137.987 5.934 138.449 6.342 138.773 6.858C139.097 7.362 139.259 7.92 139.259 8.532C139.259 9.12 139.073 9.672 138.701 10.188C138.329 10.692 137.801 11.058 137.117 11.286C137.861 11.49 138.455 11.898 138.899 12.51C139.355 13.122 139.583 13.812 139.583 14.58C139.583 15.3 139.391 15.936 139.007 16.488C138.635 17.028 138.119 17.454 137.459 17.766C136.799 18.066 136.055 18.216 135.227 18.216ZM135.227 10.746C135.995 10.746 136.601 10.554 137.045 10.17C137.501 9.774 137.729 9.258 137.729 8.622C137.729 7.914 137.507 7.38 137.063 7.02C136.619 6.66 136.007 6.48 135.227 6.48C134.447 6.48 133.835 6.66 133.391 7.02C132.959 7.38 132.743 7.914 132.743 8.622C132.743 9.258 132.965 9.774 133.409 10.17C133.853 10.554 134.459 10.746 135.227 10.746ZM135.227 16.884C136.175 16.884 136.883 16.668 137.351 16.236C137.831 15.792 138.071 15.21 138.071 14.49C138.071 13.674 137.813 13.056 137.297 12.636C136.781 12.216 136.091 12.006 135.227 12.006C134.363 12.006 133.673 12.216 133.157 12.636C132.641 13.056 132.383 13.674 132.383 14.49C132.383 15.21 132.617 15.792 133.085 16.236C133.565 16.668 134.279 16.884 135.227 16.884ZM147.762 18V15.3H141.372V14.13L147.492 5.4H149.256V13.968H151.128V15.3H149.256V18H147.762ZM143.046 13.968H147.834V7.074L143.046 13.968ZM157.238 18.216C156.374 18.216 155.624 18.06 154.988 17.748C154.352 17.436 153.842 17.01 153.458 16.47C153.086 15.918 152.858 15.294 152.774 14.598H154.25C154.394 15.294 154.73 15.858 155.258 16.29C155.786 16.71 156.452 16.92 157.256 16.92C157.856 16.92 158.372 16.782 158.804 16.506C159.236 16.218 159.566 15.834 159.794 15.354C160.034 14.874 160.154 14.34 160.154 13.752C160.154 12.816 159.89 12.06 159.362 11.484C158.834 10.908 158.15 10.62 157.31 10.62C156.614 10.62 156.02 10.776 155.528 11.088C155.036 11.4 154.676 11.808 154.448 12.312H153.008L154.088 5.4H160.694V6.714H155.258L154.52 10.548C154.808 10.2 155.204 9.912 155.708 9.684C156.224 9.456 156.812 9.342 157.472 9.342C158.3 9.342 159.02 9.534 159.632 9.918C160.256 10.302 160.742 10.824 161.09 11.484C161.438 12.144 161.612 12.894 161.612 13.734C161.612 14.538 161.438 15.282 161.09 15.966C160.754 16.65 160.256 17.196 159.596 17.604C158.948 18.012 158.162 18.216 157.238 18.216ZM163.706 13.41V12.132H170.834V13.41H163.706ZM177.74 18.216C176.828 18.216 176.06 18.048 175.436 17.712C174.812 17.364 174.308 16.902 173.924 16.326C173.552 15.75 173.276 15.108 173.096 14.4C172.928 13.68 172.844 12.948 172.844 12.204C172.844 10.812 173.036 9.594 173.42 8.55C173.804 7.494 174.356 6.672 175.076 6.084C175.808 5.484 176.69 5.184 177.722 5.184C178.514 5.184 179.192 5.34 179.756 5.652C180.32 5.964 180.764 6.384 181.088 6.912C181.424 7.428 181.634 8.004 181.718 8.64H180.314C180.182 7.956 179.888 7.428 179.432 7.056C178.976 6.684 178.4 6.498 177.704 6.498C176.756 6.498 175.958 6.948 175.31 7.848C174.674 8.736 174.332 10.128 174.284 12.024C174.572 11.46 175.028 10.974 175.652 10.566C176.288 10.146 177.05 9.936 177.938 9.936C178.658 9.936 179.33 10.104 179.954 10.44C180.59 10.776 181.106 11.25 181.502 11.862C181.898 12.462 182.096 13.17 182.096 13.986C182.096 14.694 181.922 15.372 181.574 16.02C181.226 16.668 180.722 17.196 180.062 17.604C179.414 18.012 178.64 18.216 177.74 18.216ZM177.632 16.884C178.196 16.884 178.7 16.764 179.144 16.524C179.588 16.284 179.936 15.954 180.188 15.534C180.44 15.102 180.566 14.61 180.566 14.058C180.566 13.206 180.284 12.528 179.72 12.024C179.168 11.508 178.472 11.25 177.632 11.25C177.068 11.25 176.564 11.382 176.12 11.646C175.676 11.898 175.322 12.24 175.058 12.672C174.806 13.104 174.68 13.572 174.68 14.076C174.68 14.616 174.806 15.102 175.058 15.534C175.322 15.954 175.676 16.284 176.12 16.524C176.564 16.764 177.068 16.884 177.632 16.884ZM185.111 18L190.115 6.696H183.203V5.4H191.663V6.534L186.713 18H185.111ZM197.422 18.216C196.558 18.216 195.808 18.06 195.172 17.748C194.536 17.436 194.026 17.01 193.642 16.47C193.27 15.918 193.042 15.294 192.958 14.598H194.434C194.578 15.294 194.914 15.858 195.442 16.29C195.97 16.71 196.636 16.92 197.44 16.92C198.04 16.92 198.556 16.782 198.988 16.506C199.42 16.218 199.75 15.834 199.978 15.354C200.218 14.874 200.338 14.34 200.338 13.752C200.338 12.816 200.074 12.06 199.546 11.484C199.018 10.908 198.334 10.62 197.494 10.62C196.798 10.62 196.204 10.776 195.712 11.088C195.22 11.4 194.86 11.808 194.632 12.312H193.192L194.272 5.4H200.878V6.714H195.442L194.704 10.548C194.992 10.2 195.388 9.912 195.892 9.684C196.408 9.456 196.996 9.342 197.656 9.342C198.484 9.342 199.204 9.534 199.816 9.918C200.44 10.302 200.926 10.824 201.274 11.484C201.622 12.144 201.796 12.894 201.796 13.734C201.796 14.538 201.622 15.282 201.274 15.966C200.938 16.65 200.44 17.196 199.78 17.604C199.132 18.012 198.346 18.216 197.422 18.216ZM209.865 18V15.3H203.475V14.13L209.595 5.4H211.359V13.968H213.231V15.3H211.359V18H209.865ZM205.149 13.968H209.937V7.074L205.149 13.968Z" fill="#767676"/>
<path d="M30.1216 21.7543V25.6114C30.1231 25.9695 30.045 26.3239 29.8923 26.652C29.7395 26.9801 29.5155 27.2746 29.2345 27.5167C28.9535 27.7587 28.6218 27.943 28.2606 28.0578C27.8993 28.1725 27.5166 28.2151 27.1368 28.1828C22.9237 27.753 18.8767 26.401 15.321 24.2357C12.0129 22.2617 9.20815 19.6279 7.10603 16.5214C4.79212 13.1672 3.35213 9.34841 2.90271 5.37427C2.8685 5.01873 2.9135 4.66039 3.03484 4.32207C3.15618 3.98376 3.35121 3.67287 3.60751 3.40921C3.86381 3.14555 4.17577 2.9349 4.52351 2.79066C4.87126 2.64642 5.24718 2.57175 5.62734 2.57141H9.73482C10.3993 2.56527 11.0434 2.78623 11.5473 3.1931C12.0511 3.59997 12.3801 4.16499 12.4731 4.78284C12.6465 6.01721 12.968 7.22921 13.4315 8.3957C13.6158 8.85589 13.6556 9.35602 13.5464 9.83683C13.4372 10.3176 13.1835 10.759 12.8154 11.1086L11.0766 12.7414C13.0257 15.9603 15.8638 18.6254 19.2915 20.4557L21.0304 18.8228C21.4026 18.4772 21.8726 18.2389 22.3846 18.1364C22.8967 18.0338 23.4292 18.0713 23.9193 18.2443C25.1615 18.6796 26.4522 18.9815 27.7666 19.1443C28.4317 19.2324 29.0391 19.547 29.4733 20.0282C29.9075 20.5094 30.1383 21.1237 30.1216 21.7543Z" stroke="#FFF455" stroke-width="2" stroke-linecap="round" stroke-linejoin="round"/>
<path d="M69.7 149.143V140.215H71.068L71.194 141.925C71.47 141.337 71.89 140.869 72.454 140.521C73.018 140.173 73.714 139.999 74.542 139.999V141.583H74.128C73.6 141.583 73.114 141.679 72.67 141.871C72.226 142.051 71.872 142.363 71.608 142.807C71.344 143.251 71.212 143.863 71.212 144.643V149.143H69.7ZM79.9191 149.359C79.0671 149.359 78.3111 149.167 77.6511 148.783C76.9911 148.387 76.4691 147.841 76.0851 147.145C75.7131 146.449 75.5271 145.627 75.5271 144.679C75.5271 143.743 75.7131 142.927 76.0851 142.231C76.4571 141.523 76.9731 140.977 77.6331 140.593C78.3051 140.197 79.0791 139.999 79.9551 139.999C80.8191 139.999 81.5631 140.197 82.1871 140.593C82.8231 140.977 83.3091 141.487 83.6451 142.123C83.9811 142.759 84.1491 143.443 84.1491 144.175C84.1491 144.307 84.1431 144.439 84.1311 144.571C84.1311 144.703 84.1311 144.853 84.1311 145.021H77.0211C77.0571 145.705 77.2131 146.275 77.4891 146.731C77.7771 147.175 78.1311 147.511 78.5511 147.739C78.9831 147.967 79.4391 148.081 79.9191 148.081C80.5431 148.081 81.0651 147.937 81.4851 147.649C81.9051 147.361 82.2111 146.971 82.4031 146.479H83.8971C83.6571 147.307 83.1951 147.997 82.5111 148.549C81.8391 149.089 80.9751 149.359 79.9191 149.359ZM79.9191 141.277C79.1991 141.277 78.5571 141.499 77.9931 141.943C77.4411 142.375 77.1231 143.011 77.0391 143.851H82.6551C82.6191 143.047 82.3431 142.417 81.8271 141.961C81.3111 141.505 80.6751 141.277 79.9191 141.277ZM88.3756 149.143L84.9916 140.215H86.5756L89.2576 147.685L91.9576 140.215H93.5056L90.1216 149.143H88.3756ZM96.1063 138.235C95.8063 138.235 95.5543 138.139 95.3503 137.947C95.1583 137.743 95.0623 137.491 95.0623 137.191C95.0623 136.903 95.1583 136.663 95.3503 136.471C95.5543 136.279 95.8063 136.183 96.1063 136.183C96.3943 136.183 96.6403 136.279 96.8443 136.471C97.0483 136.663 97.1503 136.903 97.1503 137.191C97.1503 137.491 97.0483 137.743 96.8443 137.947C96.6403 138.139 96.3943 138.235 96.1063 138.235ZM95.3503 149.143V140.215H96.8623V149.143H95.3503ZM99.4949 149.143V140.215H100.863L100.989 141.925C101.265 141.337 101.685 140.869 102.249 140.521C102.813 140.173 103.509 139.999 104.337 139.999V141.583H103.923C103.395 141.583 102.909 141.679 102.465 141.871C102.021 142.051 101.667 142.363 101.403 142.807C101.139 143.251 101.007 143.863 101.007 144.643V149.143H99.4949ZM109.004 149.359C108.26 149.359 107.642 149.233 107.15 148.981C106.658 148.729 106.292 148.393 106.052 147.973C105.812 147.553 105.692 147.097 105.692 146.605C105.692 145.693 106.04 144.991 106.736 144.499C107.432 144.007 108.38 143.761 109.58 143.761H111.992V143.653C111.992 142.873 111.788 142.285 111.38 141.889C110.972 141.481 110.426 141.277 109.742 141.277C109.154 141.277 108.644 141.427 108.212 141.727C107.792 142.015 107.528 142.441 107.42 143.005H105.872C105.932 142.357 106.148 141.811 106.52 141.367C106.904 140.923 107.378 140.587 107.942 140.359C108.506 140.119 109.106 139.999 109.742 139.999C110.99 139.999 111.926 140.335 112.55 141.007C113.186 141.667 113.504 142.549 113.504 143.653V149.143H112.154L112.064 147.541C111.812 148.045 111.44 148.477 110.948 148.837C110.468 149.185 109.82 149.359 109.004 149.359ZM109.238 148.081C109.814 148.081 110.306 147.931 110.714 147.631C111.134 147.331 111.452 146.941 111.668 146.461C111.884 145.981 111.992 145.477 111.992 144.949V144.931H109.706C108.818 144.931 108.188 145.087 107.816 145.399C107.456 145.699 107.276 146.077 107.276 146.533C107.276 147.001 107.444 147.379 107.78 147.667C108.128 147.943 108.614 148.081 109.238 148.081ZM115.772 149.143V140.215H117.14L117.266 141.925C117.542 141.337 117.962 140.869 118.526 140.521C119.09 140.173 119.786 139.999 120.614 139.999V141.583H120.2C119.672 141.583 119.186 141.679 118.742 141.871C118.298 142.051 117.944 142.363 117.68 142.807C117.416 143.251 117.284 143.863 117.284 144.643V149.143H115.772ZM128.845 152.725C127.561 152.725 126.433 152.479 125.461 151.987C124.501 151.495 123.751 150.799 123.211 149.899C122.683 148.999 122.419 147.931 122.419 146.695C122.419 145.423 122.641 144.235 123.085 143.131C123.529 142.027 124.153 141.061 124.957 140.233C125.761 139.405 126.709 138.763 127.801 138.307C128.893 137.851 130.093 137.623 131.401 137.623C132.733 137.623 133.891 137.881 134.875 138.397C135.859 138.901 136.615 139.609 137.143 140.521C137.683 141.421 137.953 142.471 137.953 143.671C137.953 144.355 137.869 145.033 137.701 145.705C137.533 146.365 137.281 146.965 136.945 147.505C136.621 148.033 136.219 148.459 135.739 148.783C135.271 149.095 134.731 149.251 134.119 149.251C133.507 149.251 133.039 149.095 132.715 148.783C132.403 148.471 132.229 148.051 132.193 147.523C131.821 148.063 131.347 148.489 130.771 148.801C130.207 149.101 129.607 149.251 128.971 149.251C128.059 149.251 127.345 148.975 126.829 148.423C126.325 147.871 126.073 147.127 126.073 146.191C126.073 145.531 126.175 144.901 126.379 144.301C126.595 143.689 126.895 143.149 127.279 142.681C127.663 142.201 128.119 141.823 128.647 141.547C129.175 141.271 129.763 141.133 130.411 141.133C131.623 141.133 132.409 141.631 132.769 142.627L133.003 141.331H134.281L133.381 146.479C133.297 146.995 133.321 147.415 133.453 147.739C133.597 148.051 133.891 148.207 134.335 148.207C134.719 148.207 135.061 148.075 135.361 147.811C135.661 147.535 135.913 147.175 136.117 146.731C136.321 146.275 136.471 145.789 136.567 145.273C136.675 144.745 136.729 144.235 136.729 143.743C136.729 142.171 136.237 140.935 135.253 140.035C134.281 139.135 132.937 138.685 131.221 138.685C130.129 138.685 129.121 138.889 128.197 139.297C127.285 139.705 126.487 140.269 125.803 140.989C125.119 141.709 124.585 142.543 124.201 143.491C123.829 144.439 123.643 145.465 123.643 146.569C123.643 147.649 123.865 148.567 124.309 149.323C124.753 150.079 125.383 150.655 126.199 151.051C127.015 151.447 127.987 151.645 129.115 151.645C129.631 151.645 130.147 151.591 130.663 151.483C131.179 151.387 131.659 151.237 132.103 151.033L132.355 152.059C131.275 152.503 130.105 152.725 128.845 152.725ZM129.421 148.099C129.937 148.099 130.411 147.961 130.843 147.685C131.275 147.409 131.629 147.031 131.905 146.551C132.181 146.059 132.349 145.495 132.409 144.859C132.493 144.151 132.367 143.545 132.031 143.041C131.707 142.537 131.179 142.285 130.447 142.285C129.835 142.285 129.301 142.465 128.845 142.825C128.401 143.173 128.059 143.629 127.819 144.193C127.579 144.757 127.459 145.345 127.459 145.957C127.459 146.605 127.621 147.127 127.945 147.523C128.281 147.907 128.773 148.099 129.421 148.099ZM144.554 149.359C143.702 149.359 142.946 149.167 142.286 148.783C141.626 148.387 141.104 147.841 140.72 147.145C140.348 146.449 140.162 145.627 140.162 144.679C140.162 143.743 140.348 142.927 140.72 142.231C141.092 141.523 141.608 140.977 142.268 140.593C142.94 140.197 143.714 139.999 144.59 139.999C145.454 139.999 146.198 140.197 146.822 140.593C147.458 140.977 147.944 141.487 148.28 142.123C148.616 142.759 148.784 143.443 148.784 144.175C148.784 144.307 148.778 144.439 148.766 144.571C148.766 144.703 148.766 144.853 148.766 145.021H141.656C141.692 145.705 141.848 146.275 142.124 146.731C142.412 147.175 142.766 147.511 143.186 147.739C143.618 147.967 144.074 148.081 144.554 148.081C145.178 148.081 145.7 147.937 146.12 147.649C146.54 147.361 146.846 146.971 147.038 146.479H148.532C148.292 147.307 147.83 147.997 147.146 148.549C146.474 149.089 145.61 149.359 144.554 149.359ZM144.554 141.277C143.834 141.277 143.192 141.499 142.628 141.943C142.076 142.375 141.758 143.011 141.674 143.851H147.29C147.254 143.047 146.978 142.417 146.462 141.961C145.946 141.505 145.31 141.277 144.554 141.277ZM150.788 149.143V140.215H152.156L152.264 141.511C152.552 141.031 152.936 140.659 153.416 140.395C153.896 140.131 154.436 139.999 155.036 139.999C155.744 139.999 156.35 140.143 156.854 140.431C157.37 140.719 157.766 141.157 158.042 141.745C158.354 141.205 158.78 140.779 159.32 140.467C159.872 140.155 160.466 139.999 161.102 139.999C162.17 139.999 163.022 140.323 163.658 140.971C164.294 141.607 164.612 142.591 164.612 143.923V149.143H163.118V144.085C163.118 143.161 162.932 142.465 162.56 141.997C162.188 141.529 161.654 141.295 160.958 141.295C160.238 141.295 159.638 141.577 159.158 142.141C158.69 142.693 158.456 143.485 158.456 144.517V149.143H156.944V144.085C156.944 143.161 156.758 142.465 156.386 141.997C156.014 141.529 155.48 141.295 154.784 141.295C154.076 141.295 153.482 141.577 153.002 142.141C152.534 142.693 152.3 143.485 152.3 144.517V149.143H150.788ZM169.859 149.359C169.115 149.359 168.497 149.233 168.005 148.981C167.513 148.729 167.147 148.393 166.907 147.973C166.667 147.553 166.547 147.097 166.547 146.605C166.547 145.693 166.895 144.991 167.591 144.499C168.287 144.007 169.235 143.761 170.435 143.761H172.847V143.653C172.847 142.873 172.643 142.285 172.235 141.889C171.827 141.481 171.281 141.277 170.597 141.277C170.009 141.277 169.499 141.427 169.067 141.727C168.647 142.015 168.383 142.441 168.275 143.005H166.727C166.787 142.357 167.003 141.811 167.375 141.367C167.759 140.923 168.233 140.587 168.797 140.359C169.361 140.119 169.961 139.999 170.597 139.999C171.845 139.999 172.781 140.335 173.405 141.007C174.041 141.667 174.359 142.549 174.359 143.653V149.143H173.009L172.919 147.541C172.667 148.045 172.295 148.477 171.803 148.837C171.323 149.185 170.675 149.359 169.859 149.359ZM170.093 148.081C170.669 148.081 171.161 147.931 171.569 147.631C171.989 147.331 172.307 146.941 172.523 146.461C172.739 145.981 172.847 145.477 172.847 144.949V144.931H170.561C169.673 144.931 169.043 145.087 168.671 145.399C168.311 145.699 168.131 146.077 168.131 146.533C168.131 147.001 168.299 147.379 168.635 147.667C168.983 147.943 169.469 148.081 170.093 148.081ZM177.546 138.235C177.246 138.235 176.994 138.139 176.79 137.947C176.598 137.743 176.502 137.491 176.502 137.191C176.502 136.903 176.598 136.663 176.79 136.471C176.994 136.279 177.246 136.183 177.546 136.183C177.834 136.183 178.08 136.279 178.284 136.471C178.488 136.663 178.59 136.903 178.59 137.191C178.59 137.491 178.488 137.743 178.284 137.947C178.08 138.139 177.834 138.235 177.546 138.235ZM176.79 149.143V140.215H178.302V149.143H176.79ZM180.934 149.143V136.183H182.446V149.143H180.934ZM185.447 149.233C185.147 149.233 184.895 149.137 184.691 148.945C184.499 148.741 184.403 148.495 184.403 148.207C184.403 147.919 184.499 147.679 184.691 147.487C184.895 147.283 185.147 147.181 185.447 147.181C185.735 147.181 185.975 147.283 186.167 147.487C186.371 147.679 186.473 147.919 186.473 148.207C186.473 148.495 186.371 148.741 186.167 148.945C185.975 149.137 185.735 149.233 185.447 149.233ZM192.544 149.359C191.692 149.359 190.924 149.167 190.24 148.783C189.568 148.387 189.034 147.841 188.638 147.145C188.254 146.437 188.062 145.615 188.062 144.679C188.062 143.743 188.254 142.927 188.638 142.231C189.034 141.523 189.568 140.977 190.24 140.593C190.924 140.197 191.692 139.999 192.544 139.999C193.6 139.999 194.488 140.275 195.208 140.827C195.94 141.379 196.402 142.117 196.594 143.041H195.046C194.926 142.489 194.632 142.063 194.164 141.763C193.696 141.451 193.15 141.295 192.526 141.295C192.022 141.295 191.548 141.421 191.104 141.673C190.66 141.925 190.3 142.303 190.024 142.807C189.748 143.311 189.61 143.935 189.61 144.679C189.61 145.423 189.748 146.047 190.024 146.551C190.3 147.055 190.66 147.439 191.104 147.703C191.548 147.955 192.022 148.081 192.526 148.081C193.15 148.081 193.696 147.931 194.164 147.631C194.632 147.319 194.926 146.881 195.046 146.317H196.594C196.414 147.217 195.958 147.949 195.226 148.513C194.494 149.077 193.6 149.359 192.544 149.359ZM202.774 149.359C201.934 149.359 201.178 149.167 200.506 148.783C199.834 148.399 199.3 147.859 198.904 147.163C198.52 146.455 198.328 145.627 198.328 144.679C198.328 143.731 198.526 142.909 198.922 142.213C199.318 141.505 199.852 140.959 200.524 140.575C201.208 140.191 201.97 139.999 202.81 139.999C203.65 139.999 204.406 140.191 205.078 140.575C205.75 140.959 206.278 141.505 206.662 142.213C207.058 142.909 207.256 143.731 207.256 144.679C207.256 145.627 207.058 146.455 206.662 147.163C206.266 147.859 205.726 148.399 205.042 148.783C204.37 149.167 203.614 149.359 202.774 149.359ZM202.774 148.063C203.29 148.063 203.77 147.937 204.214 147.685C204.658 147.433 205.018 147.055 205.294 146.551C205.57 146.047 205.708 145.423 205.708 144.679C205.708 143.935 205.57 143.311 205.294 142.807C205.03 142.303 204.676 141.925 204.232 141.673C203.788 141.421 203.314 141.295 202.81 141.295C202.294 141.295 201.814 141.421 201.37 141.673C200.926 141.925 200.566 142.303 200.29 142.807C200.014 143.311 199.876 143.935 199.876 144.679C199.876 145.423 200.014 146.047 200.29 146.551C200.566 147.055 200.92 147.433 201.352 147.685C201.796 147.937 202.27 148.063 202.774 148.063ZM209.358 149.143V140.215H210.726L210.834 141.511C211.122 141.031 211.506 140.659 211.986 140.395C212.466 140.131 213.006 139.999 213.606 139.999C214.314 139.999 214.92 140.143 215.424 140.431C215.94 140.719 216.336 141.157 216.612 141.745C216.924 141.205 217.35 140.779 217.89 140.467C218.442 140.155 219.036 139.999 219.672 139.999C220.74 139.999 221.592 140.323 222.228 140.971C222.864 141.607 223.182 142.591 223.182 143.923V149.143H221.688V144.085C221.688 143.161 221.502 142.465 221.13 141.997C220.758 141.529 220.224 141.295 219.528 141.295C218.808 141.295 218.208 141.577 217.728 142.141C217.26 142.693 217.026 143.485 217.026 144.517V149.143H215.514V144.085C215.514 143.161 215.328 142.465 214.956 141.997C214.584 141.529 214.05 141.295 213.354 141.295C212.646 141.295 212.052 141.577 211.572 142.141C211.104 142.693 210.87 143.485 210.87 144.517V149.143H209.358Z" fill="#767676"/>
<path d="M5.4766 136.286H27.3831C28.8892 136.286 30.1215 137.443 30.1215 138.857V154.286C30.1215 155.7 28.8892 156.857 27.3831 156.857H5.4766C3.97052 156.857 2.73828 155.7 2.73828 154.286V138.857C2.73828 137.443 3.97052 136.286 5.4766 136.286Z" stroke="#FFF455" stroke-width="2" stroke-linecap="round" stroke-linejoin="round"/>
<path d="M30.1215 138.857L16.4299 147.857L2.73828 138.857" stroke="#FFF455" stroke-width="2" stroke-linecap="round" stroke-linejoin="round"/>
<defs>
<clipPath id="clip0_44_27">
<rect width="32.8598" height="30.8571" fill="white" transform="translate(0 64.2856)"/>
</clipPath>
</defs>
</svg>
